<?xml version="1.0" standalone="no"?>
<!DOCTYPE svg PUBLIC "-//W3C//DTD SVG 20010904//EN"
 "http://www.w3.org/TR/2001/REC-SVG-20010904/DTD/svg10.dtd">
<svg version="1.0" xmlns="http://www.w3.org/2000/svg"
 width="500.000000pt" height="500.000000pt" viewBox="0 0 500.000000 500.000000"
 preserveAspectRatio="xMidYMid meet">
<metadata>
Created by potrace 1.14, written by Peter Selinger 2001-2017
</metadata>
<g transform="translate(0.000000,500.000000) scale(0.100000,-0.100000)"
fill="#000000" stroke="none">
<path d="M2085 4099 c-225 -19 -454 -124 -626 -286 -141 -133 -245 -308 -296
-498 -24 -90 -27 -118 -27 -270 -1 -154 2 -179 26 -265 105 -377 387 -660 754
-756 78 -21 131 -28 251 -31 l152 -5 417 -545 c301 -392 431 -554 466 -579 69
-51 148 -76 238 -76 92 -1 152 19 245 80 92 62 138 111 177 190 31 62 33 74
33 167 0 87 -3 107 -26 155 -14 30 -184 315 -377 632 l-352 576 25 56 c13 30
33 91 45 135 114 448 -66 908 -454 1159 -129 83 -313 147 -455 158 -36 3 -79
6 -96 7 -16 2 -70 0 -120 -4z m330 -184 c145 -40 298 -130 406 -238 l66 -66
-17 -69 c-34 -137 -108 -250 -257 -393 -340 -326 -804 -548 -1123 -537 l-95 3
-33 78 c-116 269 -87 597 73 842 60 93 207 233 298 284 86 48 180 85 272 106
82 19 328 13 410 -10z m651 -696 c22 -111 15 -314 -15 -414 -115 -383 -433
-635 -826 -652 -249 -11 -471 71 -649 238 l-60 56 82 7 c190 15 451 108 666
237 354 211 598 439 707 662 l34 68 22 -60 c12 -32 30 -96 39 -142z m323
-1348 c182 -300 336 -563 342 -585 29 -106 -15 -200 -129 -280 -68 -47 -78
-51 -143 -54 -71 -4 -111 5 -161 40 -30 20 -798 1018 -795 1033 0 6 31 22 68
36 147 57 280 149 394 272 41 44 75 85 75 91 0 6 3 6 9 1 5 -6 158 -255 340
-554z"/>
<path d="M3011 1913 c-51 -26 -74 -64 -74 -118 0 -37 8 -57 49 -116 27 -40 63
-80 79 -91 90 -55 204 21 192 128 -5 46 -72 153 -117 186 -38 28 -89 32 -129
11z"/>
</g>
</svg>
